<?xml version="1.0" encoding="utf-8"?>
<!-- Generator: Adobe Illustrator 16.0.0, SVG Export Plug-In . SVG Version: 6.00 Build 0)  -->
<!DOCTYPE svg PUBLIC "-//W3C//DTD SVG 1.1//EN" "http://www.w3.org/Graphics/SVG/1.1/DTD/svg11.dtd">
<svg version="1.1" id="Layer_1" xmlns="http://www.w3.org/2000/svg" xmlns:xlink="http://www.w3.org/1999/xlink" x="0px" y="0px"
	 width="300px" height="300px" viewBox="0 0 300 300" enable-background="new 0 0 300 300" xml:space="preserve">
<path fill="none" stroke="#000000" stroke-width="4" stroke-miterlimit="10" stroke-dasharray="12,6" d="M298,278.695
	c0,10.661-8.644,19.305-19.305,19.305H21.304C10.643,298,2,289.356,2,278.695V21.304C2,10.643,10.643,2,21.304,2h257.391
	C289.356,2,298,10.643,298,21.304V278.695z"/>
<g>
	<path fill="#1D1D1B" d="M195.1,54.593h-82.805c-3.787,0-6.9,3.106-6.9,6.9V158.1c0,3.794,3.113,6.9,6.9,6.9H195.1
		c3.801,0,6.9-3.106,6.9-6.9V61.494C202,57.7,198.9,54.593,195.1,54.593z M115.745,61.494c1.9,0,3.45,1.55,3.45,3.45
		s-1.55,3.45-3.45,3.45c-1.9,0-3.45-1.55-3.45-3.45S113.845,61.494,115.745,61.494z M153.697,137.398
		c-0.377,0-0.715-0.102-1.092-0.115c-6.739,12.656-9.084,15-10,15.917c-3.747,3.754-8.801,5.903-13.842,5.903
		c-4.501,0-8.666-1.685-11.725-4.737c-3.059-3.06-4.744-7.224-4.744-11.725c0-5.041,2.157-10.095,5.903-13.828
		c1.361-1.354,4.016-3.214,7.83-5.485c-4.245-5.735-6.833-12.757-6.833-20.432c0-19.057,15.445-34.502,34.502-34.502
		c19.057,0,34.502,15.445,34.502,34.502S172.754,137.398,153.697,137.398z M195.1,154.649c0,1.9-1.55,3.45-3.45,3.45
		s-3.45-1.55-3.45-3.45v-6.9c0-1.9,1.55-3.45,3.45-3.45s3.45,1.55,3.45,3.45V154.649z M191.649,68.394c-1.9,0-3.45-1.55-3.45-3.45
		s1.55-3.45,3.45-3.45s3.45,1.55,3.45,3.45S193.55,68.394,191.649,68.394z"/>
	<path fill="#1D1D1B" d="M153.697,95.996c-3.814,0-6.9,3.086-6.9,6.9s3.086,6.901,6.9,6.901s6.9-3.087,6.9-6.901
		S157.512,95.996,153.697,95.996z"/>
	<path fill="#1D1D1B" d="M147.659,121.893c-10.485,5.27-20.688,10.836-23.114,13.262c-2.089,2.075-3.275,4.812-3.275,7.493
		c0,2.103,0.741,4.003,2.116,5.371c1.361,1.368,3.275,2.116,5.377,2.116c2.682,0,5.418-1.193,7.494-3.282
		c2.089-2.075,6.927-10.539,13.249-23.1c0.27-0.532,0.162-1.179-0.256-1.604C148.832,121.731,148.185,121.63,147.659,121.893z"/>
</g>
</svg>
