<?xml version="1.0" encoding="utf-8"?>
<!-- Generator: Adobe Illustrator 16.0.0, SVG Export Plug-In . SVG Version: 6.00 Build 0)  -->
<!DOCTYPE svg PUBLIC "-//W3C//DTD SVG 1.1//EN" "http://www.w3.org/Graphics/SVG/1.1/DTD/svg11.dtd">
<svg version="1.1" id="Layer_1" xmlns="http://www.w3.org/2000/svg" xmlns:xlink="http://www.w3.org/1999/xlink" x="0px" y="0px"
	 width="13.188px" height="14px" viewBox="0 0 13.188 14" enable-background="new 0 0 13.188 14" xml:space="preserve">
<g>
	<path fill="#FFFFFF" d="M9.671,12.241H8.792V5.208H7.033v7.033H6.154V5.208H4.396v7.033H3.517V5.208H1.758v8.352
		C1.758,13.803,1.956,14,2.198,14h8.792c0.241,0,0.438-0.197,0.438-0.439V5.208H9.671V12.241z"/>
	<path fill="#FFFFFF" d="M12.309,1.691H8.792V0.373c0-0.241-0.197-0.44-0.439-0.44H4.835c-0.242,0-0.439,0.199-0.439,0.44v1.318
		H0.879C0.396,1.691,0,2.087,0,2.571V3.45c0,0.483,0.396,0.879,0.879,0.879h11.429c0.483,0,0.879-0.396,0.879-0.879V2.571
		C13.188,2.087,12.792,1.691,12.309,1.691z M5.275,1.691V0.813h2.638v0.879H5.275z"/>
</g>
</svg>
