<?xml version="1.0" encoding="utf-8"?>
<!-- Generator: Adobe Illustrator 16.0.0, SVG Export Plug-In . SVG Version: 6.00 Build 0)  -->
<!DOCTYPE svg PUBLIC "-//W3C//DTD SVG 1.1//EN" "http://www.w3.org/Graphics/SVG/1.1/DTD/svg11.dtd">
<svg version="1.1" id="Layer_1" xmlns="http://www.w3.org/2000/svg" xmlns:xlink="http://www.w3.org/1999/xlink" x="0px" y="0px"
	 width="500px" height="300px" viewBox="0 0 500 300" enable-background="new 0 0 500 300" xml:space="preserve">
<g>
	<path fill="#1D1D1B" stroke="#000000" stroke-miterlimit="10" d="M297.268,83.725l0.047-0.439
		c0-19.599-15.887-35.485-35.486-35.485c-13.168,0-24.534,7.254-30.656,17.912c-2.656-1.324-5.599-2.141-8.771-2.141
		c-10.89,0-19.715,8.825-19.715,19.714l0.047,0.439c-9.396,5.475-15.817,15.556-15.817,27.161c0,17.35,14.192,31.542,31.542,31.542
		h7.886v-7.885h-7.886c-13.045,0-23.656-10.612-23.656-23.657c0-8.271,4.559-16.064,11.905-20.346l3.912-2.287v-4.528l-0.039-0.824
		c0.2-6.345,5.43-11.443,11.821-11.443c1.74,0,3.503,0.446,5.244,1.309l6.661,3.327l3.704-6.453
		c5.021-8.733,13.923-13.954,23.817-13.954c15.063,0,27.338,12.121,27.6,27.122l-0.047,0.293v5.151l3.912,2.287
		c7.348,4.282,11.906,12.075,11.906,20.346c0,13.045-10.611,23.657-23.656,23.657h-7.887v7.885h7.887
		c17.35,0,31.541-14.192,31.541-31.542C313.084,99.281,306.663,89.2,297.268,83.725z"/>
	<polygon fill="#1D1D1B" stroke="#000000" stroke-miterlimit="10" points="250.001,87.229 226.344,118.771 242.116,118.771 
		242.116,158.199 257.885,158.199 257.885,118.771 273.657,118.771 	"/>
</g>
<path fill="none" stroke="#000000" stroke-width="4" stroke-miterlimit="10" stroke-dasharray="12,6" d="M498.167,286.16
	c0,6.538-5.33,11.84-11.904,11.84H14.07c-6.574,0-11.904-5.302-11.904-11.84V13.84C2.167,7.301,7.496,2,14.07,2h472.192
	c6.574,0,11.904,5.301,11.904,11.84V286.16z"/>
</svg>
