<?xml version="1.0" encoding="utf-8"?>
<!-- Generator: Adobe Illustrator 16.0.0, SVG Export Plug-In . SVG Version: 6.00 Build 0)  -->
<!DOCTYPE svg PUBLIC "-//W3C//DTD SVG 1.1//EN" "http://www.w3.org/Graphics/SVG/1.1/DTD/svg11.dtd">
<svg version="1.1" id="Layer_1" xmlns="http://www.w3.org/2000/svg" xmlns:xlink="http://www.w3.org/1999/xlink" x="0px" y="0px"
	 width="16px" height="14px" viewBox="0 0 16 14" enable-background="new 0 0 16 14" xml:space="preserve">
<g>
	<path fill="#1D1D1B" d="M13.994,4.556L14,4.5C14,2.015,11.985,0,9.5,0C7.83,0,6.389,0.92,5.612,2.271C5.275,2.104,4.902,2,4.5,2
		C3.119,2,2,3.119,2,4.5l0.006,0.056C0.814,5.25,0,6.528,0,8c0,2.2,1.8,4,4,4h1v-1H4c-1.654,0-3-1.346-3-3
		c0-1.049,0.578-2.037,1.51-2.58l0.496-0.29V4.556L3.001,4.451C3.026,3.646,3.689,3,4.5,3c0.221,0,0.444,0.057,0.665,0.166
		L6.01,3.588l0.47-0.818C7.116,1.662,8.245,1,9.5,1c1.91,0,3.467,1.537,3.5,3.439l-0.006,0.037V5.13l0.496,0.29
		C14.422,5.963,15,6.951,15,8c0,1.654-1.346,3-3,3h-1v1h1c2.2,0,4-1.8,4-4C16,6.528,15.186,5.25,13.994,4.556z"/>
	<polygon fill="#1D1D1B" points="8,5 5,9 7,9 7,14 9,14 9,9 11,9 	"/>
</g>
</svg>
